<svg id="visual" viewBox="0 0 3000 100" width="3000" height="100" xmlns="http://www.w3.org/2000/svg" xmlns:xlink="http://www.w3.org/1999/xlink" version="1.1"><path d="M0 33L71.5 37.7C143 42.3 286 51.7 428.8 58.7C571.7 65.7 714.3 70.3 857.2 72.5C1000 74.7 1143 74.3 1285.8 76.7C1428.7 79 1571.3 84 1714.2 85.2C1857 86.3 2000 83.7 2142.8 75C2285.7 66.3 2428.3 51.7 2571.2 51.3C2714 51 2857 65 2928.5 72L3000 79L3000 0L2928.5 0C2857 0 2714 0 2571.2 0C2428.3 0 2285.7 0 2142.8 0C2000 0 1857 0 1714.2 0C1571.3 0 1428.7 0 1285.8 0C1143 0 1000 0 857.2 0C714.3 0 571.7 0 428.8 0C286 0 143 0 71.5 0L0 0Z" fill="#0d2460" stroke-linecap="round" stroke-linejoin="miter"></path></svg>