<?xml version="1.0" encoding="utf-8"?>
<!-- Generator: Adobe Illustrator 22.0.0, SVG Export Plug-In . SVG Version: 6.00 Build 0)  -->
<svg version="1.1" id="Layer_1" xmlns="http://www.w3.org/2000/svg" xmlns:xlink="http://www.w3.org/1999/xlink" x="0px" y="0px"
	 viewBox="0 0 30 30" style="enable-background:new 0 0 30 30;" xml:space="preserve">
<style type="text/css">
	.st0{clip-path:url(#SVGID_2_);fill:#0D2460;}
	.st1{clip-path:url(#SVGID_2_);fill:#3ABB69;}
</style>
<g>
	<defs>
		<rect id="SVGID_1_" x="0.3" y="0.3" width="29.3" height="29.3"/>
	</defs>
	<clipPath id="SVGID_2_">
		<use xlink:href="#SVGID_1_"  style="overflow:visible;"/>
	</clipPath>
	<path class="st0" d="M13,25.7v-7.5c0-0.3-0.2-0.5-0.5-0.5H9.4c-0.3,0-0.5,0.2-0.5,0.5c0,0.3,0.2,0.5,0.5,0.5H12v7
		c-0.9,0.2-1.6,1-1.6,2c0,1.1,0.9,2,2,2c1.1,0,2-0.9,2-2C14.5,26.7,13.9,25.9,13,25.7 M12.5,28.7c-0.6,0-1.1-0.5-1.1-1.1
		c0-0.6,0.5-1.1,1.1-1.1c0.6,0,1.1,0.5,1.1,1.1C13.6,28.2,13.1,28.7,12.5,28.7"/>
	<path class="st0" d="M18,25.7v-7.5c0-0.3-0.2-0.5-0.5-0.5h-3.1c-0.3,0-0.5,0.2-0.5,0.5c0,0.3,0.2,0.5,0.5,0.5H17v7
		c-0.9,0.2-1.6,1-1.6,2c0,1.1,0.9,2,2,2c1.1,0,2-0.9,2-2C19.5,26.7,18.9,25.9,18,25.7 M17.5,28.7c-0.6,0-1.1-0.5-1.1-1.1
		c0-0.6,0.5-1.1,1.1-1.1s1.1,0.5,1.1,1.1C18.6,28.2,18.1,28.7,17.5,28.7"/>
	<path class="st0" d="M25.9,22.5c-1,0-1.8,0.7-2,1.6h-1v-5.9c0-0.3-0.2-0.5-0.5-0.5h-3.1c-0.3,0-0.5,0.2-0.5,0.5s0.2,0.5,0.5,0.5H22
		v5.9c0,0.3,0.2,0.5,0.5,0.5h1.5c0.2,0.9,1,1.6,2,1.6c1.1,0,2-0.9,2-2S27,22.5,25.9,22.5 M25.9,25.6c-0.6,0-1.1-0.5-1.1-1.1
		c0-0.6,0.5-1.1,1.1-1.1c0.6,0,1.1,0.5,1.1,1.1C27,25.1,26.5,25.6,25.9,25.6"/>
	<path class="st0" d="M28.5,10.4c-0.6-0.8-1.5-1.4-2.4-1.7c-0.1-2.2-1-4.3-2.6-5.9c-1.7-1.7-3.9-2.6-6.2-2.6c-3.1,0-5.9,1.6-7.6,4.2
		C9.3,4.4,8.9,4.4,8.5,4.4c-1.9,0-3.6,1.3-4,3.2C2.1,8.2,0.3,10.4,0.3,13c0,3.1,2.5,5.6,5.6,5.6H7V24h-1c-0.2-0.9-1-1.6-2-1.6
		c-1.1,0-2,0.9-2,2s0.9,2,2,2c1,0,1.8-0.7,2-1.6h1.5C7.8,25,8,24.8,8,24.5v-6.4c0-0.3-0.2-0.5-0.5-0.5H6c-2.6,0-4.7-2.1-4.7-4.7
		c0-2.2,1.6-4.2,3.8-4.6c0.2,0,0.3-0.2,0.4-0.4c0.2-1.5,1.5-2.7,3.1-2.7c0.4,0,0.8,0.1,1.2,0.3c0.2,0.1,0.5,0,0.6-0.2
		c1.4-2.5,4.1-4.1,6.9-4.1c4.3,0,7.9,3.5,7.9,7.8c0,0.2,0.2,0.4,0.4,0.5c1.9,0.4,3.2,2.1,3.2,4c0,2.3-1.8,4.1-4.1,4.1h-0.3
		c-0.3,0-0.5,0.2-0.5,0.5s0.2,0.5,0.5,0.5h0.3c2.8,0,5-2.3,5-5C29.7,12.4,29.3,11.3,28.5,10.4 M4.1,25.6c-0.6,0-1.1-0.5-1.1-1.1
		c0-0.6,0.5-1.1,1.1-1.1s1.1,0.5,1.1,1.1C5.2,25.1,4.7,25.6,4.1,25.6"/>
	<path class="st1" d="M23.2,9.6L23.2,9.6c0.3,0,0.5-0.2,0.5-0.5c0-0.8-0.2-1.5-0.4-2.2c-0.1-0.2-0.4-0.4-0.6-0.3
		c-0.2,0.1-0.4,0.4-0.3,0.6c0.2,0.6,0.4,1.3,0.4,1.9C22.7,9.4,22.9,9.6,23.2,9.6"/>
	<path class="st1" d="M21.4,5.8c0.1,0.1,0.2,0.2,0.4,0.2c0.1,0,0.2,0,0.3-0.1c0.2-0.2,0.2-0.5,0.1-0.7c-1.2-1.5-3-2.3-4.9-2.3
		c-0.3,0-0.5,0.2-0.5,0.5c0,0.3,0.2,0.5,0.5,0.5C18.9,3.8,20.4,4.5,21.4,5.8"/>
</g>
</svg>
