<?xml version="1.0" encoding="utf-8"?>
<!-- Generator: Adobe Illustrator 22.0.0, SVG Export Plug-In . SVG Version: 6.00 Build 0)  -->
<svg version="1.1" id="Layer_1" xmlns="http://www.w3.org/2000/svg" xmlns:xlink="http://www.w3.org/1999/xlink" x="0px" y="0px"
	 viewBox="0 0 30 30" style="enable-background:new 0 0 30 30;" xml:space="preserve">
<style type="text/css">
	.st0{clip-path:url(#SVGID_2_);fill:#ffffff;}
	.st1{clip-path:url(#SVGID_4_);fill:#ffffff;}
	.st2{clip-path:url(#SVGID_6_);fill:#ffffff;}
	.st3{clip-path:url(#SVGID_6_);fill:#ffffff;}
	.st4{clip-path:url(#SVGID_8_);fill:#ffffff;}
</style>
<g>
	<defs>
		<rect id="SVGID_1_" x="0.6" y="0.6" width="28.7" height="28.7"/>
	</defs>
	<clipPath id="SVGID_2_">
		<use xlink:href="#SVGID_1_"  style="overflow:visible;"/>
	</clipPath>
	<path class="st0" d="M23.6,17.4v-6.7c0-3.2-2.3-5.8-5.5-6.2l1.6-3.2c0.1-0.1,0.1-0.3,0-0.5c-0.1-0.1-0.2-0.2-0.4-0.2h-8.6
		c-0.2,0-0.3,0.1-0.4,0.2c-0.1,0.1-0.1,0.3,0,0.5l1.6,3.2c-3.1,0.4-5.5,3-5.5,6.2v8.6h1v-8.6c0-2.9,2.4-5.3,5.3-5.3h4.8
		c1.4,0,2.7,0.6,3.7,1.5c1,1,1.5,2.3,1.5,3.7v6.7H23.6z M17.1,4.5h-4.2l-1.4-2.9h7.1L17.1,4.5z"/>
</g>
<g>
	<defs>
		<rect id="SVGID_3_" x="0.6" y="0.6" width="28.8" height="28.8"/>
	</defs>
	<clipPath id="SVGID_4_">
		<use xlink:href="#SVGID_3_"  style="overflow:visible;"/>
	</clipPath>
	<path class="st1" d="M10.9,7.8c0.3-0.2,0.5-0.3,0.8-0.3l-0.2-0.9c-0.4,0.1-0.7,0.2-1.1,0.4L10.9,7.8z"/>
</g>
<g>
	<defs>
		<rect id="SVGID_5_" x="0.6" y="0.6" width="28.7" height="28.7"/>
	</defs>
	<clipPath id="SVGID_6_">
		<use xlink:href="#SVGID_5_"  style="overflow:visible;"/>
	</clipPath>
	<path class="st2" d="M8.3,12.6h1v-1.9c0-0.9,0.4-1.8,1-2.4L9.6,7.6c-0.8,0.8-1.3,1.9-1.3,3.1V12.6z"/>
	<path class="st3" d="M2,24.2l8.1,4.4c0.9,0.5,1.9,0.8,3,0.8h15.8c0.3,0,0.5-0.2,0.5-0.5v-8.6c0-0.3-0.2-0.5-0.5-0.5h-3.7l-0.1,0
		c-0.6-0.4-1.2-0.8-1.8-1.1c-2.3-0.9-5-0.7-7.1,0.6h-3.6c-0.8,0-1.5,0.4-1.9,1c-0.5,0.6-0.6,1.4-0.4,2.1l-5.9-3
		c-0.9-0.4-1.9-0.3-2.7,0.3C1,20.2,0.6,21,0.6,21.8v0.1C0.6,22.8,1.1,23.7,2,24.2 M25.5,20.7h2.9v7.7h-2.9V20.7z M1.6,21.8
		c0-0.5,0.3-1,0.7-1.4C2.8,20.1,3.4,20,4,20.3l7.5,3.7c0.1,0,0.1,0,0.2,0h7.2v-1h-6.2c-0.8,0-1.4-0.6-1.4-1.4s0.6-1.4,1.4-1.4h3.8
		c0.1,0,0.2,0,0.3-0.1c1.9-1.2,4.2-1.5,6.3-0.6c0.6,0.2,1.1,0.5,1.6,0.9v7.9H13.1c-0.9,0-1.8-0.2-2.5-0.6l-8.1-4.4
		C1.9,23,1.6,22.5,1.6,21.8L1.6,21.8z"/>
</g>
<g>
	<defs>
		<rect id="SVGID_7_" x="0.6" y="0.6" width="28.8" height="28.8"/>
	</defs>
	<clipPath id="SVGID_8_">
		<use xlink:href="#SVGID_7_"  style="overflow:visible;"/>
	</clipPath>
	<rect x="26.5" y="26" class="st4" width="1" height="1"/>
	<path class="st4" d="M15.5,17.4v-1H16c1.1,0,1.9-0.9,1.9-1.9S17,12.6,16,12.6H14c-0.5,0-1-0.4-1-1c0-0.5,0.4-1,1-1h3.4v-1h-1.9v-1
		h-1v1H14c-1.1,0-1.9,0.9-1.9,1.9c0,1.1,0.9,1.9,1.9,1.9H16c0.5,0,1,0.4,1,1c0,0.5-0.4,1-1,1h-3.4v1h1.9v1H15.5z"/>
</g>
</svg>
