<?xml version="1.0" encoding="utf-8"?>
<!-- Generator: Adobe Illustrator 22.0.0, SVG Export Plug-In . SVG Version: 6.00 Build 0)  -->
<svg version="1.1" id="Layer_1" xmlns="http://www.w3.org/2000/svg" xmlns:xlink="http://www.w3.org/1999/xlink" x="0px" y="0px"
	 viewBox="0 0 30 30" style="enable-background:new 0 0 30 30;" xml:space="preserve">
<style type="text/css">
	.st0{clip-path:url(#SVGID_2_);fill:#ffffff;}
	.st1{clip-path:url(#SVGID_4_);fill:#ffffff;}
	.st2{clip-path:url(#SVGID_4_);fill:#ffffff;}
</style>
<g>
	<defs>
		<rect id="SVGID_1_" x="5.6" y="6" width="18.8" height="18"/>
	</defs>
	<clipPath id="SVGID_2_">
		<use xlink:href="#SVGID_1_"  style="overflow:visible;"/>
	</clipPath>
	<path class="st0" d="M18.5,18.8c-0.2,0-0.4,0.2-0.4,0.4c0,0.2,0.2,0.4,0.4,0.4c0.2,0,0.4-0.2,0.4-0.4
		C18.9,18.9,18.7,18.8,18.5,18.8"/>
	<path class="st0" d="M15.4,12.3c0-0.2-0.2-0.4-0.4-0.4c-0.2,0-0.4,0.2-0.4,0.4c0,0.2,0.2,0.4,0.4,0.4
		C15.2,12.7,15.4,12.5,15.4,12.3"/>
</g>
<g>
	<defs>
		<rect id="SVGID_3_" x="0.1" y="0.8" width="29.8" height="28.4"/>
	</defs>
	<clipPath id="SVGID_4_">
		<use xlink:href="#SVGID_3_"  style="overflow:visible;"/>
	</clipPath>
	<path class="st1" d="M9.4,22.1c0.3,0,0.6-0.3,0.6-0.6c0-0.3-0.3-0.6-0.6-0.6s-0.6,0.3-0.6,0.6C8.8,21.9,9.1,22.1,9.4,22.1"/>
	<path class="st2" d="M29.5,24.9l-3.1-1.4V10.7c0-0.2-0.1-0.4-0.4-0.5L15.6,5.7V1.4c0-0.3-0.3-0.6-0.6-0.6c-0.3,0-0.6,0.3-0.6,0.6
		v4.3L3.9,10.2c-0.2,0.1-0.4,0.3-0.4,0.5v12.8l-3.1,1.4C0.2,25,0,25.4,0.2,25.7C0.3,26,0.6,26.1,0.9,26l3.3-1.4l10.6,4.6
		c0.1,0.1,0.3,0.1,0.5,0l10.6-4.6l3.3,1.4c0.3,0.1,0.6,0,0.8-0.3C30,25.4,29.8,25,29.5,24.9 M14.4,7v1.4C14.4,8.7,14.7,9,15,9
		c0.3,0,0.6-0.3,0.6-0.6V7l8.8,3.8l-9.3,4l-9.3-4L14.4,7z M7.8,22.3C7.7,22,7.3,21.8,7,22l-2.3,1V11.6l9.7,4.2v11.9l-8.8-3.8L7.5,23
		C7.8,22.9,7.9,22.6,7.8,22.3 M15.6,27.7V15.8l9.7-4.2V23l-2.3-1c-0.3-0.1-0.6,0-0.8,0.3c-0.1,0.3,0,0.6,0.3,0.8l1.9,0.8L15.6,27.7z
		"/>
</g>
</svg>
