<?xml version="1.0" encoding="utf-8"?>
<!-- Generator: Adobe Illustrator 22.0.0, SVG Export Plug-In . SVG Version: 6.00 Build 0)  -->
<svg version="1.1" id="Layer_1" xmlns="http://www.w3.org/2000/svg" xmlns:xlink="http://www.w3.org/1999/xlink" x="0px" y="0px"
	 viewBox="0 0 30 30" style="enable-background:new 0 0 30 30;" xml:space="preserve">
<style type="text/css">
	.st0{clip-path:url(#SVGID_2_);fill:#ffffff;}
	.st1{clip-path:url(#SVGID_4_);fill:#ffffff;}
</style>
<g>
	<defs>
		<rect id="SVGID_1_" x="0.8" y="0.8" width="28.5" height="28.5"/>
	</defs>
	<clipPath id="SVGID_2_">
		<use xlink:href="#SVGID_1_"  style="overflow:visible;"/>
	</clipPath>
	<path class="st0" d="M28.8,17.9H26L23.4,17l-0.8-2.1v-1.6c0-1.1-0.8-2-1.9-2.1c0-0.1,0-0.1,0-0.2v-7c0-0.2-0.1-0.4-0.3-0.5
		l-9.5-2.9c-0.1,0-0.2,0-0.3,0L1.1,3.6C0.9,3.7,0.8,3.9,0.8,4.1v7c0,0.2,0,0.4,0,0.7c0,0.3,0,0.6,0.1,1c0,0.1,0,0.1,0,0.2
		c0.6,6,4.2,11.3,9.7,14c0.1,0.1,0.3,0.1,0.4,0c0.7-0.4,1.4-0.8,2.1-1.2c0.1,0.2,0.3,0.4,0.6,0.5c-0.5,0.6-0.6,1.4-0.3,2
		c0.3,0.7,1,1.1,1.7,1.1h8.1c0.1,0,0.2,0,0.3-0.1l2.7-1.8h2.7c0.3,0,0.5-0.2,0.5-0.5v-8.5C29.2,18.1,29,17.9,28.8,17.9 M18.5,15.5
		l0.6,1.4h-2.8c1-1.8,1.5-3.8,1.6-5.9l1.9-0.6V11c0,0.1,0,0.2,0,0.3c-0.8,0.3-1.4,1.1-1.4,2v1.3C18.3,14.9,18.4,15.2,18.5,15.5
		 M11.7,18.8c0,0.5,0.2,1,0.5,1.3c-0.2,0.1-0.3,0.3-0.5,0.4l-0.9,0.6l-0.9-0.6c-2.1-1.4-3.7-3.4-4.6-5.7l11.7-3.5
		c-0.1,2-0.7,3.9-1.7,5.6h-1.6C12.5,16.9,11.7,17.8,11.7,18.8 M2,13.9C2,13.9,1.9,13.9,2,13.9l1.9-0.6C3.9,13.6,4,13.9,4,14.1
		l-1.9,0.6C2.1,14.4,2,14.2,2,13.9 M1.7,12l1.9-0.6c0,0.3,0,0.6,0.1,0.9l-1.9,0.6c0,0,0-0.1,0-0.1C1.8,12.5,1.8,12.3,1.7,12
		 M16.9,6.5L4.5,10.2V6.8l6.2-2.2l6.2,1.8V6.5z M16.9,7.5v0.9L4.6,12.1c0-0.3,0-0.6-0.1-0.9L16.9,7.5z M19.8,8.5v0.9L17.9,10V9.1
		L19.8,8.5z M19.8,7.5l-1.9,0.6V7.2l1.9-0.6V7.5z M4.7,13l7.7-2.3l4.4-1.3v0.9l-12,3.6C4.9,13.6,4.8,13.3,4.7,13 M1.7,4.4l9-2.7
		l9,2.7v1.2l-1.9,0.6V6c0-0.2-0.1-0.4-0.3-0.5l-6.7-1.9c-0.1,0-0.2,0-0.3,0L3.9,6C3.7,6.1,3.6,6.3,3.6,6.5v4L1.7,11V4.4z M10.7,25.9
		c-4.1-2.1-7.1-5.8-8.4-10.2l2-0.6c0.9,2.6,2.7,4.8,5,6.2l1.2,0.8c0.2,0.1,0.4,0.1,0.5,0l1.2-0.8l0,0c-0.2,0.8,0.2,1.6,0.9,2
		c-0.3,0.3-0.4,0.8-0.4,1.2c0,0.1,0,0.1,0,0.2C12,25.1,11.4,25.5,10.7,25.9 M22.9,28.3H15c-0.5,0-1-0.4-1-1c0-0.5,0.4-0.9,0.9-0.9
		c0.3,0,0.4-0.2,0.4-0.5c0-0.3-0.2-0.5-0.5-0.5h-0.4c-0.5,0-1-0.4-1-1c0-0.5,0.4-1,1-1c0.3,0,0.5-0.2,0.5-0.5s-0.2-0.5-0.5-0.5h-0.5
		c-0.5,0-0.9-0.4-0.9-1c0-0.5,0.4-1,0.9-1c0.3,0,0.5-0.2,0.5-0.5c0-0.3-0.2-0.5-0.5-0.5h-0.5c-0.5,0-1-0.4-1-1s0.4-1,1-1h6.2
		c0.2,0,0.3-0.1,0.4-0.2c0.1-0.1,0.1-0.3,0-0.4l-0.8-2c-0.1-0.2-0.1-0.3-0.1-0.5v-1.3c0-0.7,0.5-1.2,1.2-1.2c0.7,0,1.2,0.5,1.2,1.2
		V15c0,0.1,0,0.1,0,0.2l1,2.4c0.1,0.1,0.2,0.2,0.3,0.3l2.5,0.8v8L22.9,28.3z M28.3,26.4h-1.9v-7.6h1.9V26.4z"/>
</g>
<g>
	<defs>
		<rect id="SVGID_3_" x="0.8" y="0.8" width="28.5" height="28.5"/>
	</defs>
	<clipPath id="SVGID_4_">
		<use xlink:href="#SVGID_3_"  style="overflow:visible;"/>
	</clipPath>
	<path class="st1" d="M25.7,6.9l-0.6,0.7c0.2,0.2,0.4,0.4,0.6,0.6l0.7-0.6C26.2,7.3,26,7.1,25.7,6.9"/>
	<path class="st1" d="M28.3,12.7c0-0.2,0-0.4,0-0.6l-0.9,0.1c0,0.2,0,0.3,0,0.5c0,0.1,0,0.3,0,0.4l0.9,0.1
		C28.3,13,28.3,12.9,28.3,12.7"/>
	<path class="st1" d="M25,6.2c-0.3-0.2-0.6-0.4-0.9-0.5l-0.5,0.8c0.3,0.1,0.5,0.3,0.8,0.5L25,6.2z"/>
	<path class="st1" d="M28.2,14.2L27.2,14c-0.1,0.3-0.1,0.6-0.2,0.9l0.9,0.3C28,14.9,28.1,14.5,28.2,14.2"/>
	<path class="st1" d="M23.2,5.2c-0.3-0.1-0.6-0.2-1-0.3L22,5.8c0.3,0.1,0.6,0.2,0.8,0.3L23.2,5.2z"/>
	<path class="st1" d="M26.5,16.2l0.8,0.5c0.1-0.2,0.2-0.4,0.3-0.5l-0.9-0.4C26.6,15.9,26.5,16,26.5,16.2"/>
	<path class="st1" d="M26.2,8.9c0.2,0.2,0.3,0.5,0.4,0.8l0.9-0.4C27.4,9,27.2,8.7,27,8.4L26.2,8.9z"/>
	<path class="st1" d="M27,10.5c0.1,0.3,0.2,0.6,0.2,0.9l0.9-0.2c-0.1-0.3-0.1-0.7-0.3-1L27,10.5z"/>
	<path class="st1" d="M22.1,9.8c1.2,0.5,1.9,1.6,1.9,2.8h1c0-1.6-1-3.1-2.5-3.7l-0.2-0.1l-0.4,0.9L22.1,9.8z"/>
</g>
</svg>
