<?xml version="1.0" encoding="utf-8"?>
<!-- Generator: Adobe Illustrator 22.0.0, SVG Export Plug-In . SVG Version: 6.00 Build 0)  -->
<svg version="1.1" id="Layer_1" xmlns="http://www.w3.org/2000/svg" xmlns:xlink="http://www.w3.org/1999/xlink" x="0px" y="0px"
	 viewBox="0 0 30 30" style="enable-background:new 0 0 30 30;" xml:space="preserve">
<style type="text/css">
	.st0{clip-path:url(#SVGID_2_);fill:#0D2460;}
	.st1{clip-path:url(#SVGID_2_);fill:#3ABB69;}
</style>
<g>
	<defs>
		<rect id="SVGID_1_" x="3.3" y="0.7" width="23.4" height="28.5"/>
	</defs>
	<clipPath id="SVGID_2_">
		<use xlink:href="#SVGID_1_"  style="overflow:visible;"/>
	</clipPath>
	<path class="st0" d="M14.9,4.1c0.3,0,0.6-0.2,0.6-0.6C15.6,3.2,15.3,3,15,3c-0.3,0-0.6,0.2-0.6,0.6C14.4,3.8,14.7,4.1,14.9,4.1"/>
	<path class="st0" d="M26.1,4.1c-1.5,0-2.8-1.2-2.8-2.8c0-0.3-0.2-0.6-0.6-0.6H7.2C6.9,0.7,6.6,1,6.6,1.3c0,1.5-1.2,2.8-2.8,2.8
		c-0.3,0-0.6,0.2-0.6,0.6v9.1c0,7.1,4.6,13.4,11.5,15.5c0.1,0,0.1,0,0.2,0c0.1,0,0.1,0,0.2,0c6.8-2,11.5-8.3,11.5-15.5V4.6
		C26.7,4.3,26.4,4.1,26.1,4.1 M25.6,13.7c0,6.7-4.2,12.4-10.6,14.4c-6.3-2-10.6-7.8-10.6-14.4V5.2c1.7-0.2,3.1-1.6,3.3-3.3h14.6
		c0.2,1.7,1.6,3.1,3.3,3.3V13.7z"/>
	<path class="st0" d="M21.5,3.3C21.5,3.1,21.3,3,21,3h-3.8c-0.3,0-0.6,0.2-0.6,0.6c0,0.3,0.2,0.6,0.6,0.6h3.5
		c0.6,1.2,1.5,2.1,2.7,2.7v7c0,5.4-3.3,10.1-8.4,12c-5.1-1.9-8.4-6.6-8.4-12v-7c1.2-0.6,2.1-1.5,2.7-2.7h3.5c0.3,0,0.6-0.2,0.6-0.6
		c0-0.3-0.2-0.6-0.6-0.6H9C8.7,3,8.5,3.1,8.5,3.3C7.9,4.5,7,5.4,5.9,5.9C5.7,6,5.5,6.2,5.5,6.4v7.3c0,6,3.7,11.2,9.3,13.1
		c0.1,0,0.1,0,0.2,0c0.1,0,0.1,0,0.2,0c5.6-2,9.3-7.2,9.3-13.1V6.4c0-0.2-0.1-0.4-0.3-0.5C23,5.4,22.1,4.5,21.5,3.3"/>
	<path class="st1" d="M10,13.9c0,2.8,2.2,5,5,5c2.8,0,5-2.2,5-5c0-2.8-2.2-5-5-5C12.2,8.9,10,11.1,10,13.9 M18.9,13.9
		c0,2.1-1.7,3.9-3.9,3.9s-3.9-1.7-3.9-3.9c0-2.1,1.7-3.9,3.9-3.9S18.9,11.7,18.9,13.9"/>
	<path class="st1" d="M13.7,14c-0.2-0.2-0.6-0.2-0.8,0c-0.2,0.2-0.2,0.6,0,0.8l1.1,1.1c0.1,0.1,0.2,0.2,0.4,0.2
		c0.1,0,0.3-0.1,0.4-0.2l2.8-2.8c0.2-0.2,0.2-0.6,0-0.8c-0.2-0.2-0.6-0.2-0.8,0l-2.4,2.4L13.7,14z"/>
</g>
</svg>
