<svg xmlns="http://www.w3.org/2000/svg" viewBox="0 0 73 73" width="73" height="73">
	<style>
		tspan { white-space:pre }
		.shp0 { fill: #ffffff } 
	</style>
	<g id="Layer">
		<g id="svg_1">
			<path id="svg_2" fill-rule="evenodd" class="shp0" d="M36.29 0C43.78 -0.07 50.49 1.87 56.56 5.88C64.49 11.11 69.86 18.48 71.95 26.99C72.71 30.09 72.99 32.62 73 36.34C73.01 39.48 72.89 40.99 72.43 43.51C71.58 48.18 69.74 52.68 67.08 56.67C62.31 63.82 55.85 68.85 48.35 71.29C41.86 73.39 33.78 73.61 27 71.86C21.1 70.34 15.42 67.09 10.72 62.55C4.81 56.82 1.21 49.6 0.3 41.68C-0.67 33.18 0.71 25.54 4.41 18.87C5.59 16.75 7.58 13.97 9.4 11.88C12.09 8.82 16.09 5.83 20.28 3.75C24.64 1.58 28.97 0.43 34.29 0.05C34.51 0.03 35.4 0.01 36.29 0ZM35.32 11.01C32.81 11.32 30.69 12.39 28.82 14.28C27.31 15.81 26.35 17.45 25.89 19.3C24.95 23.06 26.01 26.7 28.87 29.56C30.12 30.81 31.19 31.53 32.71 32.14C33.96 32.64 34.99 32.82 36.52 32.82C38.37 32.82 39.6 32.54 41.14 31.77C43.74 30.49 45.84 28.18 46.86 25.48C47.63 23.41 47.66 20.58 46.92 18.51C46.31 16.79 45.49 15.57 43.87 13.93C42.22 12.26 41.06 11.62 38.95 11.18C37.97 10.99 36.18 10.89 35.32 11.01ZM34.77 39.85C30.91 40.15 26.94 41.16 22.92 42.83C19.59 44.21 17.36 45.63 16.09 47.17C15.28 48.16 14.6 49.82 14.6 50.86C14.6 51.6 18.11 55.52 20.44 57.36C24.82 60.84 29.79 62.61 35.69 62.78C41.4 62.95 46.43 61.57 50.86 58.63C53.26 57.04 55.81 54.59 57.82 51.97C58.53 51.03 58.54 50.96 58.26 49.8C57.71 47.49 55.9 45.64 52.49 43.91C48.73 42.01 43.78 40.48 39.85 40.01C38.74 39.87 35.65 39.78 34.77 39.85Z" />
		</g>
	</g>
</svg>